<svg id="visual" viewBox="0 0 1920 1080" width="1920" height="1080" xmlns="http://www.w3.org/2000/svg" xmlns:xlink="http://www.w3.org/1999/xlink" version="1.1"><rect width="1920" height="1080" fill="#2F2F2F"></rect><g><g transform="translate(657 345)"><path d="M230.3 -279.9C294.8 -220.4 340.8 -144.3 359.5 -60.2C378.1 23.9 369.3 116.1 323.5 178.7C277.7 241.3 194.8 274.5 113.2 299C31.5 323.6 -49 339.6 -128 323.2C-207 306.7 -284.5 257.9 -316.3 189.2C-348.2 120.5 -334.4 32 -315.6 -52.3C-296.7 -136.6 -272.9 -216.7 -219.4 -278.1C-166 -339.6 -83 -382.4 0 -382.4C82.9 -382.4 165.8 -339.4 230.3 -279.9Z" fill="#ffffff"></path></g><g transform="translate(1866 266)"><path d="M181.6 -224.1C236.7 -170.1 283.9 -114.2 300.5 -48.8C317.1 16.7 303 91.8 266.7 153.2C230.3 214.7 171.6 262.5 106.3 281.8C40.9 301.2 -31 292.1 -93.8 265.8C-156.5 239.4 -210 195.8 -251.3 138.3C-292.6 80.8 -321.6 9.5 -316.6 -62.2C-311.6 -134 -272.5 -206.1 -214.1 -259.6C-155.6 -313.1 -77.8 -347.9 -7.3 -339.2C63.2 -330.5 126.4 -278.2 181.6 -224.1Z" fill="#ffffff"></path></g><g transform="translate(23 1024)"><path d="M197.4 -245C252.6 -188.9 292 -123.7 303.8 -54C315.6 15.7 299.7 89.8 263.4 151.4C227 213.1 170.2 262.3 100.9 295.5C31.5 328.7 -50.4 346 -114.4 320.1C-178.4 294.3 -224.5 225.3 -267.7 153.2C-310.9 81.2 -351.1 6.1 -347.6 -69.5C-344.1 -145.1 -296.8 -221.3 -231.6 -275.6C-166.4 -329.9 -83.2 -362.4 -6.1 -355.2C71.1 -348 142.2 -301.1 197.4 -245Z" fill="#ffffff"></path></g><g transform="translate(1460 1063)"><path d="M158.2 -186.4C203 -151 235.9 -99.2 247.7 -42.2C259.5 14.8 250.3 77 223.6 134.6C196.9 192.3 152.8 245.4 94.6 271.5C36.5 297.6 -35.6 296.9 -97.3 272.3C-159 247.7 -210.2 199.3 -242.3 141.1C-274.3 83 -287.3 15 -272.2 -44.1C-257.1 -103.2 -214 -153.4 -164 -187.9C-113.9 -222.3 -57 -241 -0.1 -240.8C56.7 -240.7 113.4 -221.7 158.2 -186.4Z" fill="#ffffff"></path></g></g></svg>