<svg id="visual" viewBox="0 0 1920 1080" width="1920" height="1080" xmlns="http://www.w3.org/2000/svg" xmlns:xlink="http://www.w3.org/1999/xlink" version="1.1"><rect width="1920" height="1080" fill="#ffffff"></rect><g><g transform="translate(1660 1070)"><path d="M35.2 -34.9C43.9 -26.5 48 -13.3 50 1.9C51.9 17.1 51.6 34.2 42.9 44.4C34.2 54.6 17.1 57.8 2.3 55.6C-12.6 53.3 -25.2 45.6 -37.9 35.4C-50.5 25.2 -63.3 12.6 -64.9 -1.6C-66.4 -15.7 -56.8 -31.5 -44.1 -39.9C-31.5 -48.3 -15.7 -49.3 -1.2 -48.1C13.3 -46.8 26.5 -43.3 35.2 -34.9Z" fill="#2F2F2F"></path></g><g transform="translate(708 484)"><path d="M32.9 -32.6C41.6 -24.3 46.7 -12.2 44.5 -2.1C42.4 7.9 33.1 15.8 24.4 24.4C15.8 33 7.9 42.3 -0.3 42.6C-8.6 43 -17.2 34.4 -25.4 25.8C-33.7 17.2 -41.6 8.6 -42.5 -0.9C-43.4 -10.3 -37.2 -20.7 -28.9 -29C-20.7 -37.3 -10.3 -43.6 0.9 -44.5C12.2 -45.4 24.3 -40.9 32.9 -32.6Z" fill="#2F2F2F"></path></g><g transform="translate(1742 292)"><path d="M34.7 -32.8C44.2 -25.1 50.7 -12.6 51.2 0.5C51.7 13.5 46.1 27 36.6 36.1C27 45.3 13.5 50 0.1 49.9C-13.3 49.8 -26.6 44.8 -38.1 35.7C-49.6 26.6 -59.4 13.3 -58.4 1.1C-57.3 -11.2 -45.4 -22.3 -33.8 -30C-22.3 -37.7 -11.2 -41.9 0.7 -42.6C12.6 -43.3 25.1 -40.5 34.7 -32.8Z" fill="#2F2F2F"></path></g><g transform="translate(74 588)"><path d="M38.6 -36.4C48.8 -28.5 54.7 -14.3 54.3 -0.4C53.9 13.4 47 26.8 36.9 33.4C26.8 40 13.4 39.9 1.7 38.2C-9.9 36.4 -19.8 33.1 -29.3 26.4C-38.9 19.8 -48.1 9.9 -50.1 -2C-52.2 -14 -47.1 -28 -37.5 -35.8C-28 -43.7 -14 -45.5 0.1 -45.6C14.3 -45.8 28.5 -44.3 38.6 -36.4Z" fill="#2F2F2F"></path></g><g transform="translate(1878 765)"><path d="M33.8 -33C42.4 -25.1 47.2 -12.6 45.2 -2C43.2 8.5 34.4 17.1 25.7 24.9C17.1 32.8 8.5 39.9 -1.5 41.5C-11.6 43 -23.2 38.9 -29.6 31.1C-36.1 23.2 -37.3 11.6 -36.2 1.1C-35.1 -9.4 -31.6 -18.7 -25.1 -26.6C-18.7 -34.5 -9.4 -40.9 1.6 -42.5C12.6 -44.2 25.1 -40.9 33.8 -33Z" fill="#2F2F2F"></path></g><g transform="translate(758 1032)"><path d="M26.3 -25.2C34.9 -17.6 43.3 -8.8 44.4 1.1C45.4 11 39.2 21.9 30.6 28.3C21.9 34.7 11 36.5 0.3 36.2C-10.5 36 -20.9 33.7 -27.7 27.3C-34.6 20.9 -37.8 10.5 -38.6 -0.9C-39.5 -12.2 -38.1 -24.4 -31.2 -31.9C-24.4 -39.5 -12.2 -42.3 -1.7 -40.6C8.8 -38.9 17.6 -32.7 26.3 -25.2Z" fill="#2F2F2F"></path></g><g transform="translate(1839 460)"><path d="M32.1 -32.4C40.1 -24.2 43.9 -12.1 43.2 -0.7C42.5 10.7 37.2 21.3 29.3 28.9C21.3 36.5 10.7 41 0.7 40.3C-9.2 39.5 -18.4 33.6 -25.6 26C-32.9 18.4 -38.1 9.2 -38.4 -0.3C-38.7 -9.8 -34 -19.5 -26.8 -27.7C-19.5 -35.9 -9.8 -42.5 1.2 -43.7C12.1 -44.8 24.2 -40.6 32.1 -32.4Z" fill="#2F2F2F"></path></g><g transform="translate(1169 657)"><path d="M21.7 -21.6C26 -17.3 26.2 -8.6 25.8 -0.4C25.4 7.8 24.3 15.5 19.9 20.3C15.5 25 7.8 26.8 0.9 25.9C-6 25 -12 21.5 -16.8 16.7C-21.5 12 -25.1 6 -25.4 -0.2C-25.6 -6.5 -22.5 -12.9 -17.7 -17.3C-12.9 -21.6 -6.5 -23.7 1.1 -24.8C8.6 -25.9 17.3 -25.9 21.7 -21.6Z" fill="#2F2F2F"></path></g><g transform="translate(997 967)"><path d="M22.6 -23.7C27.1 -18 27.1 -9 26.9 -0.2C26.8 8.7 26.4 17.4 21.9 23C17.4 28.6 8.7 31.1 0.3 30.8C-8 30.5 -16.1 27.3 -21.2 21.7C-26.3 16.1 -28.5 8 -28.5 0.1C-28.4 -7.9 -26 -15.7 -20.8 -21.4C-15.7 -27.1 -7.9 -30.5 0.6 -31.1C9 -31.7 18 -29.4 22.6 -23.7Z" fill="#2F2F2F"></path></g><g transform="translate(129 1)"><path d="M28.6 -27.1C36 -21.2 40.2 -10.6 40.5 0.4C40.9 11.3 37.5 22.7 30.1 29.9C22.7 37.1 11.3 40.1 -0.5 40.6C-12.3 41.1 -24.7 39.1 -32.9 31.9C-41.1 24.7 -45.2 12.3 -45.4 -0.2C-45.5 -12.7 -41.8 -25.3 -33.5 -31.3C-25.3 -37.3 -12.7 -36.5 -1 -35.5C10.6 -34.4 21.2 -33.1 28.6 -27.1Z" fill="#2F2F2F"></path></g><g transform="translate(555 213)"><path d="M34.8 -35C42.7 -27 44.9 -13.5 43.5 -1.3C42.2 10.8 37.3 21.7 29.5 29.8C21.7 38 10.8 43.5 -1.4 44.8C-13.5 46.2 -27.1 43.4 -34.7 35.2C-42.3 27.1 -43.9 13.5 -44.9 -0.9C-45.8 -15.4 -45.9 -30.7 -38.3 -38.7C-30.7 -46.8 -15.4 -47.4 -0.9 -46.5C13.5 -45.5 27 -43 34.8 -35Z" fill="#2F2F2F"></path></g><g transform="translate(1698 694)"><path d="M35 -35.6C42.8 -27.2 44.9 -13.6 44.5 -0.4C44.1 12.8 41.3 25.7 33.5 35.7C25.7 45.7 12.8 53 0.7 52.2C-11.4 51.5 -22.8 42.9 -31.9 32.9C-41 22.8 -47.8 11.4 -47.2 0.6C-46.6 -10.2 -38.6 -20.4 -29.5 -28.8C-20.4 -37.2 -10.2 -43.8 1.7 -45.5C13.6 -47.2 27.2 -44 35 -35.6Z" fill="#2F2F2F"></path></g><g transform="translate(1445 952)"><path d="M14.7 -14.2C18.5 -10.8 20.7 -5.4 20.2 -0.5C19.7 4.4 16.4 8.7 12.6 12.2C8.7 15.7 4.4 18.3 0.1 18.2C-4.2 18.1 -8.4 15.4 -11.9 11.9C-15.4 8.4 -18.3 4.2 -18.3 -0.1C-18.4 -4.3 -15.7 -8.7 -12.2 -12.1C-8.7 -15.4 -4.3 -17.8 0.5 -18.3C5.4 -18.9 10.8 -17.6 14.7 -14.2Z" fill="#2F2F2F"></path></g><g transform="translate(941 370)"><path d="M39 -39.8C47.5 -30.5 49.3 -15.2 47.5 -1.8C45.7 11.7 40.4 23.4 31.9 33.1C23.4 42.9 11.7 50.7 -1.2 51.9C-14.1 53.2 -28.2 47.8 -37.1 38C-46 28.2 -49.7 14.1 -49.2 0.5C-48.7 -13.1 -44 -26.2 -35.1 -35.5C-26.2 -44.8 -13.1 -50.2 1.1 -51.3C15.2 -52.4 30.5 -49 39 -39.8Z" fill="#2F2F2F"></path></g><g transform="translate(289 99)"><path d="M22.6 -22.3C29.6 -15.5 35.9 -7.8 36.7 0.8C37.5 9.4 32.9 18.8 25.9 23.7C18.8 28.6 9.4 29 -0.1 29.1C-9.6 29.2 -19.2 29 -25.9 24.1C-32.6 19.2 -36.3 9.6 -35.5 0.8C-34.6 -7.9 -29.2 -15.8 -22.5 -22.6C-15.8 -29.4 -7.9 -34.9 -0.1 -34.9C7.8 -34.8 15.5 -29 22.6 -22.3Z" fill="#2F2F2F"></path></g><g transform="translate(301 528)"><path d="M20.6 -21.3C25.1 -16.1 26.1 -8 26.1 0C26.1 8 25 16 20.5 21.3C16 26.7 8 29.3 1.3 28.1C-5.5 26.8 -11 21.7 -15.7 16.3C-20.5 11 -24.5 5.5 -25 -0.5C-25.5 -6.6 -22.6 -13.1 -17.9 -18.4C-13.1 -23.6 -6.6 -27.5 0.7 -28.2C8 -29 16.1 -26.5 20.6 -21.3Z" fill="#2F2F2F"></path></g><g transform="translate(1171 396)"><path d="M25.9 -25C32 -19.9 34.1 -10 32.6 -1.5C31.1 6.9 25.9 13.8 19.9 19.8C13.8 25.8 6.9 30.8 -1.1 31.9C-9.1 33 -18.2 30.2 -23.8 24.2C-29.3 18.2 -31.2 9.1 -30.2 1C-29.3 -7.2 -25.5 -14.4 -20 -19.5C-14.4 -24.6 -7.2 -27.6 1.4 -29C10 -30.4 19.9 -30.1 25.9 -25Z" fill="#2F2F2F"></path></g><g transform="translate(859 618)"><path d="M19.1 -20C22.7 -15.4 22.3 -7.7 22.2 -0.1C22.1 7.5 22.2 14.9 18.6 19.2C14.9 23.6 7.5 24.7 -0.1 24.8C-7.7 24.9 -15.3 23.9 -20.6 19.6C-25.9 15.3 -28.8 7.7 -28.6 0.2C-28.4 -7.3 -25.1 -14.5 -19.8 -19.1C-14.5 -23.6 -7.3 -25.5 0.2 -25.7C7.7 -25.9 15.4 -24.5 19.1 -20Z" fill="#2F2F2F"></path></g><g transform="translate(1907 126)"><path d="M41.2 -42.5C50.1 -32.3 51.9 -16.1 49.7 -2.2C47.5 11.8 41.4 23.6 32.5 32.9C23.6 42.2 11.8 49.1 -0.6 49.7C-13 50.3 -26 44.6 -35.6 35.3C-45.2 26 -51.5 13 -51.4 0.2C-51.2 -12.7 -44.6 -25.3 -35 -35.6C-25.3 -45.8 -12.7 -53.7 1.7 -55.4C16.1 -57.2 32.3 -52.8 41.2 -42.5Z" fill="#2F2F2F"></path></g><g transform="translate(134 186)"><path d="M11.8 -13.1C14.3 -9.3 14.7 -4.6 14.3 -0.4C13.9 3.9 12.7 7.7 10.2 11.2C7.7 14.6 3.9 17.7 0 17.7C-3.9 17.7 -7.8 14.7 -11.5 11.2C-15.3 7.8 -19 3.9 -19.3 -0.4C-19.7 -4.7 -16.9 -9.3 -13.1 -13.2C-9.3 -17 -4.7 -20 0 -20C4.6 -20 9.3 -17 11.8 -13.1Z" fill="#2F2F2F"></path></g><g transform="translate(476 488)"><path d="M30.2 -33.2C38.3 -22.1 43.6 -11 44 0.4C44.4 11.9 40.1 23.8 31.9 34.7C23.8 45.7 11.9 55.6 -1.1 56.7C-14 57.7 -28.1 49.9 -39.8 39C-51.5 28.1 -60.8 14 -59.3 1.5C-57.8 -11.1 -45.5 -22.1 -33.8 -33.3C-22.1 -44.4 -11.1 -55.7 0 -55.6C11 -55.6 22.1 -44.4 30.2 -33.2Z" fill="#2F2F2F"></path></g><g transform="translate(165 417)"><path d="M30.7 -29.9C40.5 -20.9 49.7 -10.4 49.9 0.2C50.1 10.9 41.3 21.7 31.5 29.5C21.7 37.2 10.9 41.8 0.9 40.9C-9.1 40.1 -18.3 33.7 -25.5 26C-32.7 18.3 -38 9.1 -38.2 -0.2C-38.4 -9.5 -33.5 -19.1 -26.3 -28.1C-19.1 -37.2 -9.5 -45.7 0.5 -46.1C10.4 -46.6 20.9 -39 30.7 -29.9Z" fill="#2F2F2F"></path></g><g transform="translate(1285 780)"><path d="M28.2 -28C34.1 -22.3 34.9 -11.1 34 -0.9C33.1 9.3 30.6 18.7 24.6 26.9C18.7 35.1 9.3 42.1 -0.4 42.5C-10.1 42.9 -20.2 36.6 -26.9 28.4C-33.6 20.2 -36.7 10.1 -36 0.8C-35.2 -8.6 -30.5 -17.2 -23.9 -23C-17.2 -28.7 -8.6 -31.6 1.3 -32.9C11.1 -34.1 22.3 -33.8 28.2 -28Z" fill="#2F2F2F"></path></g><g transform="translate(1644 435)"><path d="M19.1 -19.7C23.5 -14.8 24.7 -7.4 24.6 -0.1C24.5 7.1 22.9 14.2 18.6 19.4C14.2 24.6 7.1 27.9 -0.4 28.3C-7.9 28.7 -15.8 26.2 -21.1 21C-26.5 15.8 -29.1 7.9 -28.2 0.9C-27.3 -6.1 -22.8 -12.2 -17.5 -17.2C-12.2 -22.1 -6.1 -25.9 0.6 -26.5C7.4 -27.2 14.8 -24.7 19.1 -19.7Z" fill="#2F2F2F"></path></g><g transform="translate(676 819)"><path d="M35.1 -38.3C42.9 -27.4 44.7 -13.7 44.8 0.1C45 13.9 43.4 27.9 35.6 38.6C27.9 49.4 13.9 57 1.1 55.9C-11.7 54.7 -23.4 44.9 -32.2 34.2C-41 23.4 -46.9 11.7 -47.9 -1C-48.9 -13.7 -45.1 -27.5 -36.3 -38.4C-27.5 -49.3 -13.7 -57.3 0 -57.3C13.7 -57.3 27.4 -49.2 35.1 -38.3Z" fill="#2F2F2F"></path></g><g transform="translate(394 985)"><path d="M40.1 -40C49 -31.1 51.3 -15.6 50.5 -0.7C49.8 14.1 46.1 28.2 37.1 37.7C28.2 47.1 14.1 52 -1.3 53.3C-16.8 54.6 -33.6 52.5 -43.1 43.1C-52.5 33.6 -54.7 16.8 -54.2 0.5C-53.7 -15.8 -50.5 -31.6 -41 -40.4C-31.6 -49.2 -15.8 -51.1 -0.1 -50.9C15.6 -50.8 31.1 -48.8 40.1 -40Z" fill="#2F2F2F"></path></g><g transform="translate(1549 824)"><path d="M23.2 -23.9C29.5 -16.8 33.7 -8.4 34.7 0.9C35.6 10.3 33.2 20.6 26.9 29C20.6 37.5 10.3 44.1 0 44.2C-10.4 44.2 -20.8 37.7 -26.2 29.2C-31.6 20.8 -32.1 10.4 -31.5 0.6C-31 -9.3 -29.4 -18.5 -24 -25.6C-18.5 -32.6 -9.3 -37.4 -0.4 -37C8.4 -36.6 16.8 -30.9 23.2 -23.9Z" fill="#2F2F2F"></path></g><g transform="translate(1487 166)"><path d="M30 -32.7C36.5 -23.4 37.9 -11.7 37.7 -0.1C37.6 11.5 36 22.9 29.5 30.9C22.9 38.9 11.5 43.4 0.7 42.7C-10 42 -20.1 36.1 -27.5 28.1C-34.9 20.1 -39.6 10 -40 -0.4C-40.4 -10.8 -36.5 -21.7 -29.1 -30.9C-21.7 -40.2 -10.8 -47.9 0.4 -48.3C11.7 -48.8 23.4 -41.9 30 -32.7Z" fill="#2F2F2F"></path></g><g transform="translate(865 5)"><path d="M24.4 -25.4C30.5 -18.4 33.3 -9.2 33.2 -0.1C33.1 9.1 30.2 18.2 24.2 24C18.2 29.9 9.1 32.5 0 32.5C-9.1 32.5 -18.2 29.9 -23.6 24C-29 18.2 -30.9 9.1 -31.8 -1C-32.8 -11 -32.9 -22 -27.4 -28.9C-22 -35.9 -11 -38.9 -0.9 -38C9.2 -37.1 18.4 -32.4 24.4 -25.4Z" fill="#2F2F2F"></path></g><g transform="translate(527 26)"><path d="M13.6 -14.5C16.6 -10.6 17.3 -5.3 17.4 0.1C17.4 5.4 16.8 10.8 13.8 14.5C10.8 18.2 5.4 20.2 0.2 20C-4.9 19.8 -9.9 17.3 -12.5 13.6C-15.1 9.9 -15.4 4.9 -15.4 0.1C-15.3 -4.8 -14.9 -9.6 -12.3 -13.5C-9.6 -17.3 -4.8 -20.2 0.2 -20.5C5.3 -20.7 10.6 -18.3 13.6 -14.5Z" fill="#2F2F2F"></path></g><g transform="translate(1104 25)"><path d="M14 -15.2C17.9 -10.1 20.7 -5 21.9 1.3C23.2 7.6 23 15.2 19.1 20.2C15.2 25.2 7.6 27.7 1 26.6C-5.5 25.6 -11 21.1 -15.8 16.1C-20.5 11 -24.5 5.5 -24.2 0.3C-24 -5 -19.5 -10 -14.7 -15.2C-10 -20.4 -5 -25.7 0 -25.7C5 -25.7 10.1 -20.4 14 -15.2Z" fill="#2F2F2F"></path></g><g transform="translate(144 797)"><path d="M19.1 -18.4C24.1 -14.2 27 -7.1 27.2 0.3C27.5 7.6 25.2 15.2 20.2 19.7C15.2 24.1 7.6 25.3 -0.1 25.4C-7.8 25.5 -15.7 24.5 -21.2 20.1C-26.7 15.7 -29.8 7.8 -28.6 1.2C-27.4 -5.4 -21.8 -10.8 -16.3 -15.1C-10.8 -19.3 -5.4 -22.4 0.8 -23.2C7.1 -24.1 14.2 -22.6 19.1 -18.4Z" fill="#2F2F2F"></path></g><g transform="translate(1255 1038)"><path d="M13.8 -12.8C17.5 -10.1 19.9 -5 20 0.2C20.2 5.4 18.1 10.7 14.4 14.6C10.7 18.5 5.4 21 0.5 20.5C-4.4 20 -8.7 16.6 -12.3 12.6C-15.9 8.7 -18.7 4.4 -19 -0.3C-19.4 -5 -17.2 -10 -13.6 -12.8C-10 -15.5 -5 -16.1 0 -16.1C5 -16.1 10.1 -15.6 13.8 -12.8Z" fill="#2F2F2F"></path></g><g transform="translate(880 804)"><path d="M11.8 -12.6C14.6 -9 15.7 -4.5 16.4 0.7C17 5.8 17.2 11.6 14.4 14.4C11.6 17.2 5.8 17.1 0.3 16.8C-5.2 16.5 -10.3 16 -13.8 13.1C-17.3 10.3 -19.1 5.2 -19.2 -0.1C-19.3 -5.4 -17.8 -10.8 -14.3 -14.5C-10.8 -18.1 -5.4 -20.1 -0.5 -19.6C4.5 -19.2 9 -16.3 11.8 -12.6Z" fill="#2F2F2F"></path></g><g transform="translate(502 813)"><path d="M23.7 -24C29.3 -18.2 31.3 -9.1 30.8 -0.5C30.4 8.1 27.3 16.2 21.8 21.7C16.2 27.2 8.1 30 0.3 29.7C-7.5 29.5 -15.1 26.1 -22.7 20.6C-30.2 15.1 -37.9 7.5 -38.5 -0.6C-39.1 -8.7 -32.7 -17.5 -25.1 -23.3C-17.5 -29.2 -8.7 -32.1 0.2 -32.3C9.1 -32.5 18.2 -29.9 23.7 -24Z" fill="#2F2F2F"></path></g><g transform="translate(1663 50)"><path d="M22.6 -19.9C30.5 -14.8 38.8 -7.4 40.5 1.8C42.3 10.9 37.5 21.8 29.6 29.4C21.8 37 10.9 41.3 0.8 40.5C-9.3 39.7 -18.6 33.8 -23.8 26.2C-28.9 18.6 -29.8 9.3 -28.8 1C-27.8 -7.2 -24.7 -14.5 -19.6 -19.6C-14.5 -24.7 -7.2 -27.8 0.1 -27.9C7.4 -27.9 14.8 -25.1 22.6 -19.9Z" fill="#2F2F2F"></path></g><g transform="translate(1355 261)"><path d="M22 -21.9C26.4 -17.6 26.3 -8.8 24.9 -1.4C23.5 6 20.8 12.1 16.4 18.2C12.1 24.3 6 30.5 -0.7 31.1C-7.3 31.8 -14.7 26.9 -19.1 20.8C-23.6 14.7 -25.1 7.3 -24.3 0.8C-23.4 -5.6 -20.2 -11.3 -15.7 -15.6C-11.3 -19.9 -5.6 -22.8 1.6 -24.4C8.8 -25.9 17.6 -26.2 22 -21.9Z" fill="#2F2F2F"></path></g><g transform="translate(1916 316)"><path d="M9.4 -9.7C12.1 -6.8 14.1 -3.4 14.9 0.7C15.6 4.9 15.1 9.7 12.4 12.7C9.7 15.7 4.9 16.8 0.1 16.7C-4.7 16.6 -9.4 15.3 -12.7 12.4C-16 9.4 -18 4.7 -17.7 0.3C-17.3 -4 -14.7 -8 -11.3 -11C-8 -13.9 -4 -15.8 -0.3 -15.4C3.4 -15.1 6.8 -12.6 9.4 -9.7Z" fill="#2F2F2F"></path></g><g transform="translate(677 105)"><path d="M39.3 -40.8C47.5 -31.1 48.5 -15.5 49 0.5C49.5 16.5 49.5 33 41.2 43.3C33 53.5 16.5 57.6 0.1 57.5C-16.2 57.3 -32.5 53 -42.3 42.8C-52.2 32.5 -55.6 16.2 -53.1 2.5C-50.5 -11.2 -42 -22.4 -32.2 -32.1C-22.4 -41.8 -11.2 -50 2.2 -52.2C15.5 -54.3 31.1 -50.5 39.3 -40.8Z" fill="#2F2F2F"></path></g><g transform="translate(1395 37)"><path d="M24.5 -23.9C30.6 -18.4 33.6 -9.2 33.9 0.3C34.2 9.8 31.8 19.6 25.7 26.3C19.6 33 9.8 36.6 1.6 34.9C-6.5 33.3 -13 26.4 -19.9 19.7C-26.8 13 -33.9 6.5 -35.3 -1.4C-36.7 -9.3 -32.3 -18.6 -25.4 -24.1C-18.6 -29.5 -9.3 -31.2 0 -31.1C9.2 -31.1 18.4 -29.4 24.5 -23.9Z" fill="#2F2F2F"></path></g><g transform="translate(1861 1040)"><path d="M35.7 -37.4C46 -25.5 53.7 -12.7 55.5 1.7C57.2 16.2 52.9 32.3 42.6 41.4C32.3 50.4 16.2 52.3 1.3 51C-13.6 49.7 -27.2 45.2 -35.6 36.2C-44 27.2 -47.3 13.6 -48.1 -0.8C-48.9 -15.2 -47.2 -30.3 -38.7 -42.3C-30.3 -54.3 -15.2 -63.1 -1.2 -61.9C12.7 -60.7 25.5 -49.4 35.7 -37.4Z" fill="#2F2F2F"></path></g><g transform="translate(339 709)"><path d="M41.1 -40.3C50.2 -32 52.3 -16 51.3 -1C50.3 14 46.2 28 37.1 37.3C28 46.6 14 51.1 0.3 50.8C-13.4 50.5 -26.8 45.3 -37.5 36C-48.2 26.8 -56.2 13.4 -56.6 -0.4C-57 -14.2 -49.8 -28.4 -39.1 -36.8C-28.4 -45.1 -14.2 -47.5 0.9 -48.4C16 -49.3 32 -48.7 41.1 -40.3Z" fill="#2F2F2F"></path></g><g transform="translate(1528 638)"><path d="M21.6 -23C26.1 -17 26.8 -8.5 27.1 0.2C27.3 8.9 27 17.8 22.4 24C17.8 30.1 8.9 33.5 1.6 32C-5.8 30.4 -11.6 23.9 -16.5 17.8C-21.4 11.6 -25.3 5.8 -26.5 -1.2C-27.7 -8.2 -26.1 -16.3 -21.2 -22.4C-16.3 -28.4 -8.2 -32.4 0.2 -32.5C8.5 -32.7 17 -29.1 21.6 -23Z" fill="#2F2F2F"></path></g><g transform="translate(8 368)"><path d="M38 -38.3C46.4 -29.6 48.6 -14.8 47.5 -1.1C46.4 12.6 42.2 25.3 33.7 34.3C25.3 43.3 12.6 48.7 -1.1 49.7C-14.8 50.8 -29.6 47.6 -37.6 38.6C-45.6 29.6 -46.7 14.8 -46.1 0.6C-45.6 -13.7 -43.3 -27.4 -35.4 -36.1C-27.4 -44.8 -13.7 -48.4 0.5 -49C14.8 -49.5 29.6 -46.9 38 -38.3Z" fill="#2F2F2F"></path></g><g transform="translate(1470 459)"><path d="M12.2 -13.7C15.3 -9.2 16.9 -4.6 16.7 -0.2C16.5 4.1 14.5 8.3 11.4 12.8C8.3 17.3 4.1 22.2 -0.8 23C-5.7 23.8 -11.5 20.5 -15.1 16C-18.7 11.5 -20.3 5.7 -19.7 0.6C-19.1 -4.6 -16.5 -9.2 -12.8 -13.7C-9.2 -18.2 -4.6 -22.7 0 -22.7C4.6 -22.7 9.2 -18.2 12.2 -13.7Z" fill="#2F2F2F"></path></g><g transform="translate(601 1028)"><path d="M16.2 -17.2C19.9 -12.6 20.9 -6.3 20.5 -0.4C20.1 5.5 18.4 11.1 14.7 15.6C11.1 20 5.5 23.5 -0.7 24.2C-7 24.9 -14 23 -18.1 18.5C-22.1 14 -23.2 7 -23.2 0C-23.2 -6.9 -22 -13.9 -17.9 -18.5C-13.9 -23.1 -6.9 -25.3 -0.3 -25C6.3 -24.7 12.6 -21.8 16.2 -17.2Z" fill="#2F2F2F"></path></g><g transform="translate(330 332)"><path d="M28.5 -28.4C37.7 -19.3 46.5 -9.7 48.5 2.1C50.6 13.8 46.1 27.7 36.9 36.7C27.7 45.7 13.8 49.8 1.8 48C-10.2 46.2 -20.4 38.4 -28 29.4C-35.6 20.4 -40.7 10.2 -42 -1.3C-43.3 -12.8 -40.9 -25.6 -33.2 -34.7C-25.6 -43.8 -12.8 -49.2 -1.6 -47.7C9.7 -46.1 19.3 -37.5 28.5 -28.4Z" fill="#2F2F2F"></path></g><g transform="translate(239 937)"><path d="M9.3 -9.3C11.6 -7 12.8 -3.5 13.5 0.7C14.2 4.9 14.4 9.8 12.1 12.4C9.8 15.1 4.9 15.5 0.6 14.9C-3.8 14.3 -7.6 12.8 -10.6 10.2C-13.7 7.6 -16 3.8 -15.7 0.3C-15.4 -3.2 -12.4 -6.3 -9.4 -8.7C-6.3 -11 -3.2 -12.5 0.2 -12.7C3.5 -12.8 7 -11.7 9.3 -9.3Z" fill="#2F2F2F"></path></g><g transform="translate(703 267)"><path d="M39.4 -39.9C50.3 -28.5 57.9 -14.3 56.9 -1C55.8 12.2 46.2 24.4 35.3 34.1C24.4 43.7 12.2 50.8 -1.6 52.4C-15.4 54 -30.8 50.1 -42.2 40.5C-53.6 30.8 -61 15.4 -59.6 1.4C-58.2 -12.6 -48.1 -25.3 -36.7 -36.6C-25.3 -47.9 -12.6 -58 0.8 -58.8C14.3 -59.6 28.5 -51.2 39.4 -39.9Z" fill="#2F2F2F"></path></g><g transform="translate(1052 522)"><path d="M25.2 -25.9C31.3 -19.1 34 -9.5 32.9 -1.1C31.8 7.3 26.9 14.6 20.8 19.4C14.6 24.1 7.3 26.2 0.1 26.1C-7.2 26 -14.3 23.8 -19.5 19C-24.7 14.3 -27.8 7.2 -27.8 0C-27.8 -7.1 -24.6 -14.2 -19.4 -21C-14.2 -27.8 -7.1 -34.3 1.2 -35.5C9.5 -36.8 19.1 -32.7 25.2 -25.9Z" fill="#2F2F2F"></path></g><g transform="translate(109 1060)"><path d="M16.8 -16.7C22.1 -11.5 26.9 -5.8 28.3 1.4C29.7 8.6 27.7 17.1 22.4 22.7C17.1 28.3 8.6 31 1 30C-6.6 29.1 -13.2 24.4 -19 18.8C-24.8 13.2 -29.8 6.6 -29.3 0.5C-28.9 -5.7 -22.9 -11.3 -17.1 -16.5C-11.3 -21.7 -5.7 -26.5 0.1 -26.6C5.8 -26.6 11.5 -22 16.8 -16.7Z" fill="#2F2F2F"></path></g><g transform="translate(1138 870)"><path d="M20.8 -20.2C26.8 -14.8 31.5 -7.4 33 1.5C34.5 10.4 32.9 20.9 26.9 27.6C20.9 34.3 10.4 37.2 1.3 36C-7.9 34.7 -15.8 29.2 -22.5 22.5C-29.2 15.8 -34.6 7.9 -35.7 -1C-36.7 -10 -33.3 -19.9 -26.6 -25.4C-19.9 -30.8 -10 -31.7 -1.3 -30.5C7.4 -29.2 14.8 -25.7 20.8 -20.2Z" fill="#2F2F2F"></path></g><g transform="translate(608 626)"><path d="M36.1 -37.3C45.2 -26.9 50.1 -13.4 50.6 0.5C51.1 14.4 47.2 28.8 38 38C28.8 47.2 14.4 51.2 0.8 50.5C-12.9 49.7 -25.8 44.2 -35.6 35C-45.3 25.8 -51.9 12.9 -51.7 0.1C-51.6 -12.6 -44.8 -25.3 -35 -35.7C-25.3 -46.2 -12.6 -54.4 0.4 -54.8C13.4 -55.2 26.9 -47.7 36.1 -37.3Z" fill="#2F2F2F"></path></g><g transform="translate(1142 194)"><path d="M18.1 -18.6C22.6 -13.6 24.7 -6.8 24.2 -0.6C23.6 5.7 20.4 11.4 15.9 15.2C11.4 19.1 5.7 21.1 -1.3 22.4C-8.2 23.7 -16.5 24.2 -21.3 20.3C-26 16.5 -27.4 8.2 -26 1.4C-24.7 -5.5 -20.6 -11.1 -15.8 -16.1C-11.1 -21.1 -5.5 -25.5 0.6 -26.2C6.8 -26.8 13.6 -23.6 18.1 -18.6Z" fill="#2F2F2F"></path></g><g transform="translate(867 183)"><path d="M11.5 -10.3C14.8 -8.1 17.3 -4.1 17.4 0C17.4 4.2 15 8.3 11.6 11.2C8.3 14 4.2 15.6 -0.1 15.6C-4.3 15.7 -8.5 14.3 -11.9 11.4C-15.3 8.5 -17.7 4.3 -17.1 0.6C-16.6 -3.2 -13 -6.3 -9.7 -8.5C-6.3 -10.8 -3.2 -12 0.4 -12.4C4.1 -12.9 8.1 -12.5 11.5 -10.3Z" fill="#2F2F2F"></path></g><g transform="translate(1692 897)"><path d="M26.3 -28.5C32.4 -20.2 34.5 -10.1 33.7 -0.7C33 8.6 29.4 17.2 23.3 25.6C17.2 34 8.6 42.2 -0.2 42.4C-8.9 42.5 -17.9 34.7 -26 26.3C-34.1 17.9 -41.3 8.9 -41.2 0.1C-41.1 -8.7 -33.7 -17.5 -25.6 -25.8C-17.5 -34.2 -8.7 -42.1 0.7 -42.8C10.1 -43.5 20.2 -36.9 26.3 -28.5Z" fill="#2F2F2F"></path></g><g transform="translate(1363 631)"><path d="M26.3 -23.8C34.5 -18 42 -9 41.9 0C41.9 8.9 34.4 17.9 26.1 26.1C17.9 34.4 8.9 42 -0.8 42.7C-10.5 43.5 -21 37.5 -29.3 29.2C-37.7 21 -43.9 10.5 -44 -0.1C-44.1 -10.7 -38 -21.3 -29.7 -27.1C-21.3 -32.9 -10.7 -33.8 -0.8 -33C9 -32.2 18 -29.6 26.3 -23.8Z" fill="#2F2F2F"></path></g><g transform="translate(1004 700)"><path d="M16.9 -16.4C22.1 -11.8 26.5 -5.9 27.2 0.7C28 7.4 25.1 14.8 19.9 18.8C14.8 22.9 7.4 23.6 0.4 23.2C-6.5 22.8 -13.1 21.2 -18.4 17.1C-23.8 13.1 -27.9 6.5 -27.2 0.7C-26.5 -5.1 -20.9 -10.2 -15.6 -14.8C-10.2 -19.5 -5.1 -23.7 0.4 -24.1C5.9 -24.5 11.8 -21.1 16.9 -16.4Z" fill="#2F2F2F"></path></g><g transform="translate(1305 484)"><path d="M11.7 -11.9C14.6 -8.7 16.2 -4.3 16.4 0.1C16.5 4.5 15 9.1 12.1 12C9.1 14.9 4.5 16.2 0.1 16.1C-4.3 16 -8.6 14.5 -10.9 11.6C-13.2 8.6 -13.5 4.3 -13.2 0.3C-12.8 -3.7 -12 -7.4 -9.7 -10.6C-7.4 -13.8 -3.7 -16.6 0.3 -16.9C4.3 -17.2 8.7 -15.1 11.7 -11.9Z" fill="#2F2F2F"></path></g><g transform="translate(5 891)"><path d="M32.2 -30.9C40.2 -24.2 44.2 -12.1 43.6 -0.6C43 11 37.9 21.9 29.9 28.9C21.9 36 11 39.1 -1.1 40.2C-13.2 41.3 -26.3 40.4 -32.4 33.4C-38.4 26.3 -37.3 13.2 -36.1 1.2C-34.9 -10.7 -33.6 -21.5 -27.5 -28.2C-21.5 -35 -10.7 -37.7 0.7 -38.4C12.1 -39.1 24.2 -37.7 32.2 -30.9Z" fill="#2F2F2F"></path></g></g></svg>