<svg id="visual" viewBox="0 0 1920 1080" width="1920" height="1080" xmlns="http://www.w3.org/2000/svg" xmlns:xlink="http://www.w3.org/1999/xlink" version="1.1"><g stroke-width="1" stroke-linejoin="bevel"><path d="M979 552.1L1075.7 585.1L1058.7 512.9Z" fill="#fbfbfb" stroke="#fbfbfb"></path><path d="M979 552.1L965 646.3L1075.7 585.1Z" fill="#ffffff" stroke="#ffffff"></path><path d="M1075.7 585.1L1158.3 530.9L1058.7 512.9Z" fill="#ededed" stroke="#ededed"></path><path d="M916 458.9L887.3 569.1L979 552.1Z" fill="#ffffff" stroke="#ffffff"></path><path d="M979 552.1L887.3 569.1L965 646.3Z" fill="#f5f5f5" stroke="#f5f5f5"></path><path d="M965 646.3L1092.7 694.3L1075.7 585.1Z" fill="#f7f7f7" stroke="#f7f7f7"></path><path d="M1075.7 585.1L1206.3 611.1L1158.3 530.9Z" fill="#fbfbfb" stroke="#fbfbfb"></path><path d="M951 369.7L916 458.9L1058.7 512.9Z" fill="#f1f1f1" stroke="#f1f1f1"></path><path d="M1058.7 512.9L916 458.9L979 552.1Z" fill="#fdfdfd" stroke="#fdfdfd"></path><path d="M1092.7 694.3L1206.3 611.1L1075.7 585.1Z" fill="#f3f3f3" stroke="#f3f3f3"></path><path d="M886.3 716.3L1004 743.5L965 646.3Z" fill="#ededed" stroke="#ededed"></path><path d="M965 646.3L1004 743.5L1092.7 694.3Z" fill="#ededed" stroke="#ededed"></path><path d="M916 458.9L844.3 522.9L887.3 569.1Z" fill="#f7f7f7" stroke="#f7f7f7"></path><path d="M887.3 569.1L886.3 716.3L965 646.3Z" fill="#efefef" stroke="#efefef"></path><path d="M1253 466.9L1131.3 394.7L1158.3 530.9Z" fill="#efefef" stroke="#efefef"></path><path d="M1158.3 530.9L1131.3 394.7L1058.7 512.9Z" fill="#ededed" stroke="#ededed"></path><path d="M1131.3 394.7L1041.7 358.7L1058.7 512.9Z" fill="#f9f9f9" stroke="#f9f9f9"></path><path d="M1041.7 358.7L951 369.7L1058.7 512.9Z" fill="#f1f1f1" stroke="#f1f1f1"></path><path d="M916 458.9L755.7 413.7L844.3 522.9Z" fill="#ededed" stroke="#ededed"></path><path d="M786.7 685.3L886.3 716.3L887.3 569.1Z" fill="#fbfbfb" stroke="#fbfbfb"></path><path d="M1245 690.3L1251 618.1L1206.3 611.1Z" fill="#f9f9f9" stroke="#f9f9f9"></path><path d="M1206.3 611.1L1253 466.9L1158.3 530.9Z" fill="#f5f5f5" stroke="#f5f5f5"></path><path d="M1245 690.3L1206.3 611.1L1216.3 731.3Z" fill="#fdfdfd" stroke="#fdfdfd"></path><path d="M1251 618.1L1253 466.9L1206.3 611.1Z" fill="#ebebeb" stroke="#ebebeb"></path><path d="M1041.7 358.7L942 333.5L951 369.7Z" fill="#f1f1f1" stroke="#f1f1f1"></path><path d="M951 369.7L869.3 354.7L916 458.9Z" fill="#f9f9f9" stroke="#f9f9f9"></path><path d="M1216.3 731.3L1206.3 611.1L1092.7 694.3Z" fill="#f3f3f3" stroke="#f3f3f3"></path><path d="M1185.3 813.5L1216.3 731.3L1092.7 694.3Z" fill="#f7f7f7" stroke="#f7f7f7"></path><path d="M942 333.5L869.3 354.7L951 369.7Z" fill="#f9f9f9" stroke="#f9f9f9"></path><path d="M1130.3 294.5L1053.7 290.5L1041.7 358.7Z" fill="#fdfdfd" stroke="#fdfdfd"></path><path d="M1041.7 358.7L1053.7 290.5L942 333.5Z" fill="#f7f7f7" stroke="#f7f7f7"></path><path d="M942 333.5L829.3 313.5L869.3 354.7Z" fill="#ebebeb" stroke="#ebebeb"></path><path d="M1130.3 294.5L1041.7 358.7L1131.3 394.7Z" fill="#ededed" stroke="#ededed"></path><path d="M1051.7 840.6L1065.7 827.5L1004 743.5Z" fill="#fbfbfb" stroke="#fbfbfb"></path><path d="M1004 743.5L1065.7 827.5L1092.7 694.3Z" fill="#f3f3f3" stroke="#f3f3f3"></path><path d="M738.7 584.1L887.3 569.1L844.3 522.9Z" fill="#ebebeb" stroke="#ebebeb"></path><path d="M738.7 584.1L786.7 685.3L887.3 569.1Z" fill="#fbfbfb" stroke="#fbfbfb"></path><path d="M984 871.6L1051.7 840.6L1004 743.5Z" fill="#efefef" stroke="#efefef"></path><path d="M1255 269.5L1130.3 294.5L1131.3 394.7Z" fill="#ffffff" stroke="#ffffff"></path><path d="M873.3 829.5L1004 743.5L886.3 716.3Z" fill="#ebebeb" stroke="#ebebeb"></path><path d="M1065.7 827.5L1185.3 813.5L1092.7 694.3Z" fill="#fdfdfd" stroke="#fdfdfd"></path><path d="M755.7 413.7L745.7 531.9L844.3 522.9Z" fill="#ededed" stroke="#ededed"></path><path d="M745.7 531.9L738.7 584.1L844.3 522.9Z" fill="#fdfdfd" stroke="#fdfdfd"></path><path d="M1180.3 864.6L1185.3 813.5L1065.7 827.5Z" fill="#f7f7f7" stroke="#f7f7f7"></path><path d="M1216.3 731.3L1260 755.5L1245 690.3Z" fill="#f5f5f5" stroke="#f5f5f5"></path><path d="M1185.3 813.5L1260 755.5L1216.3 731.3Z" fill="#ededed" stroke="#ededed"></path><path d="M1383.7 671.3L1393.7 592.1L1251 618.1Z" fill="#f7f7f7" stroke="#f7f7f7"></path><path d="M1377.7 448.9L1308 413.7L1253 466.9Z" fill="#f7f7f7" stroke="#f7f7f7"></path><path d="M869.3 354.7L755.7 413.7L916 458.9Z" fill="#fdfdfd" stroke="#fdfdfd"></path><path d="M745.7 531.9L619 519.9L738.7 584.1Z" fill="#fdfdfd" stroke="#fdfdfd"></path><path d="M1377.7 448.9L1253 466.9L1393.7 592.1Z" fill="#f3f3f3" stroke="#f3f3f3"></path><path d="M1253 466.9L1308 413.7L1131.3 394.7Z" fill="#f3f3f3" stroke="#f3f3f3"></path><path d="M773.7 787.5L873.3 829.5L886.3 716.3Z" fill="#fdfdfd" stroke="#fdfdfd"></path><path d="M935 215.4L829.3 313.5L942 333.5Z" fill="#f5f5f5" stroke="#f5f5f5"></path><path d="M869.3 354.7L829.3 313.5L755.7 413.7Z" fill="#fdfdfd" stroke="#fdfdfd"></path><path d="M873.3 829.5L984 871.6L1004 743.5Z" fill="#fdfdfd" stroke="#fdfdfd"></path><path d="M1051.7 840.6L1180.3 864.6L1065.7 827.5Z" fill="#ebebeb" stroke="#ebebeb"></path><path d="M1128.3 975.8L1180.3 864.6L1051.7 840.6Z" fill="#f5f5f5" stroke="#f5f5f5"></path><path d="M1185.3 813.5L1291 840.6L1260 755.5Z" fill="#fdfdfd" stroke="#fdfdfd"></path><path d="M650 770.5L773.7 787.5L786.7 685.3Z" fill="#f1f1f1" stroke="#f1f1f1"></path><path d="M786.7 685.3L773.7 787.5L886.3 716.3Z" fill="#ffffff" stroke="#ffffff"></path><path d="M1055.7 163.4L935 215.4L1053.7 290.5Z" fill="#f1f1f1" stroke="#f1f1f1"></path><path d="M1053.7 290.5L935 215.4L942 333.5Z" fill="#f1f1f1" stroke="#f1f1f1"></path><path d="M758.7 857.6L882.3 881.6L873.3 829.5Z" fill="#f5f5f5" stroke="#f5f5f5"></path><path d="M873.3 829.5L882.3 881.6L984 871.6Z" fill="#f5f5f5" stroke="#f5f5f5"></path><path d="M1053.7 997.8L1128.3 975.8L1051.7 840.6Z" fill="#efefef" stroke="#efefef"></path><path d="M1393.7 592.1L1253 466.9L1251 618.1Z" fill="#fbfbfb" stroke="#fbfbfb"></path><path d="M1308 413.7L1255 269.5L1131.3 394.7Z" fill="#ededed" stroke="#ededed"></path><path d="M1383.7 671.3L1245 690.3L1260 755.5Z" fill="#f3f3f3" stroke="#f3f3f3"></path><path d="M1383.7 671.3L1251 618.1L1245 690.3Z" fill="#ffffff" stroke="#ffffff"></path><path d="M1389.7 270.5L1255 269.5L1308 413.7Z" fill="#ebebeb" stroke="#ebebeb"></path><path d="M1130.3 294.5L1055.7 163.4L1053.7 290.5Z" fill="#efefef" stroke="#efefef"></path><path d="M829.3 313.5L738.7 334.5L755.7 413.7Z" fill="#f3f3f3" stroke="#f3f3f3"></path><path d="M755.7 413.7L619 519.9L745.7 531.9Z" fill="#ffffff" stroke="#ffffff"></path><path d="M734.7 229.4L738.7 334.5L829.3 313.5Z" fill="#f7f7f7" stroke="#f7f7f7"></path><path d="M1420.7 823.5L1383.7 671.3L1260 755.5Z" fill="#f3f3f3" stroke="#f3f3f3"></path><path d="M1180.3 864.6L1291 840.6L1185.3 813.5Z" fill="#f1f1f1" stroke="#f1f1f1"></path><path d="M1255 269.5L1185.3 194.4L1130.3 294.5Z" fill="#ededed" stroke="#ededed"></path><path d="M1185.3 194.4L1055.7 163.4L1130.3 294.5Z" fill="#f7f7f7" stroke="#f7f7f7"></path><path d="M858.3 91.2L873.3 190.4L941 58.2Z" fill="#fbfbfb" stroke="#fbfbfb"></path><path d="M935 215.4L873.3 190.4L829.3 313.5Z" fill="#f1f1f1" stroke="#f1f1f1"></path><path d="M773.7 787.5L758.7 857.6L873.3 829.5Z" fill="#f5f5f5" stroke="#f5f5f5"></path><path d="M650 770.5L758.7 857.6L773.7 787.5Z" fill="#f9f9f9" stroke="#f9f9f9"></path><path d="M758.7 857.6L891.3 945.8L882.3 881.6Z" fill="#efefef" stroke="#efefef"></path><path d="M882.3 881.6L891.3 945.8L984 871.6Z" fill="#ededed" stroke="#ededed"></path><path d="M1350.7 959.8L1365.7 910.6L1291 840.6Z" fill="#f7f7f7" stroke="#f7f7f7"></path><path d="M598 372.7L619 519.9L755.7 413.7Z" fill="#f5f5f5" stroke="#f5f5f5"></path><path d="M622 716.3L650 770.5L786.7 685.3Z" fill="#ededed" stroke="#ededed"></path><path d="M619 519.9L607 550.1L738.7 584.1Z" fill="#f5f5f5" stroke="#f5f5f5"></path><path d="M1188.3 88.2L1034.7 129.2L1055.7 163.4Z" fill="#ededed" stroke="#ededed"></path><path d="M1055.7 163.4L1034.7 129.2L935 215.4Z" fill="#fbfbfb" stroke="#fbfbfb"></path><path d="M1053.7 997.8L1051.7 840.6L984 871.6Z" fill="#efefef" stroke="#efefef"></path><path d="M622 716.3L786.7 685.3L738.7 584.1Z" fill="#f9f9f9" stroke="#f9f9f9"></path><path d="M607 550.1L622 716.3L738.7 584.1Z" fill="#fdfdfd" stroke="#fdfdfd"></path><path d="M961 997.8L1053.7 997.8L984 871.6Z" fill="#f3f3f3" stroke="#f3f3f3"></path><path d="M730.7 142.2L734.7 229.4L873.3 190.4Z" fill="#f7f7f7" stroke="#f7f7f7"></path><path d="M873.3 190.4L734.7 229.4L829.3 313.5Z" fill="#efefef" stroke="#efefef"></path><path d="M738.7 334.5L598 372.7L755.7 413.7Z" fill="#ffffff" stroke="#ffffff"></path><path d="M1470.3 373.7L1421.7 349.7L1377.7 448.9Z" fill="#f9f9f9" stroke="#f9f9f9"></path><path d="M1377.7 448.9L1421.7 349.7L1308 413.7Z" fill="#f3f3f3" stroke="#f3f3f3"></path><path d="M1255 269.5L1261 168.4L1185.3 194.4Z" fill="#f3f3f3" stroke="#f3f3f3"></path><path d="M917 1080L961 997.8L889.3 1080Z" fill="#fbfbfb" stroke="#fbfbfb"></path><path d="M891.3 945.8L961 997.8L984 871.6Z" fill="#fdfdfd" stroke="#fdfdfd"></path><path d="M1350.7 187.4L1261 168.4L1255 269.5Z" fill="#ededed" stroke="#ededed"></path><path d="M1185.3 194.4L1188.3 88.2L1055.7 163.4Z" fill="#f1f1f1" stroke="#f1f1f1"></path><path d="M1421.7 349.7L1389.7 270.5L1308 413.7Z" fill="#ffffff" stroke="#ffffff"></path><path d="M1383.7 671.3L1498.3 593.1L1393.7 592.1Z" fill="#f3f3f3" stroke="#f3f3f3"></path><path d="M1393.7 592.1L1513.3 529.9L1377.7 448.9Z" fill="#f1f1f1" stroke="#f1f1f1"></path><path d="M1484.3 719.3L1498.3 593.1L1383.7 671.3Z" fill="#f3f3f3" stroke="#f3f3f3"></path><path d="M606 263.5L598 372.7L738.7 334.5Z" fill="#f7f7f7" stroke="#f7f7f7"></path><path d="M619 519.9L491.3 505.9L607 550.1Z" fill="#f9f9f9" stroke="#f9f9f9"></path><path d="M1365.7 910.6L1420.7 823.5L1291 840.6Z" fill="#ebebeb" stroke="#ebebeb"></path><path d="M1291 840.6L1420.7 823.5L1260 755.5Z" fill="#f1f1f1" stroke="#f1f1f1"></path><path d="M1513.3 529.9L1470.3 373.7L1377.7 448.9Z" fill="#ffffff" stroke="#ffffff"></path><path d="M1421.7 349.7L1459.3 330.5L1389.7 270.5Z" fill="#fdfdfd" stroke="#fdfdfd"></path><path d="M1420.7 823.5L1484.3 719.3L1383.7 671.3Z" fill="#ebebeb" stroke="#ebebeb"></path><path d="M1583 549.1L1513.3 529.9L1498.3 593.1Z" fill="#fdfdfd" stroke="#fdfdfd"></path><path d="M1498.3 593.1L1513.3 529.9L1393.7 592.1Z" fill="#f5f5f5" stroke="#f5f5f5"></path><path d="M1477.3 181.4L1459.3 330.5L1570 262.5Z" fill="#ededed" stroke="#ededed"></path><path d="M1470.3 373.7L1459.3 330.5L1421.7 349.7Z" fill="#f5f5f5" stroke="#f5f5f5"></path><path d="M1259 993.8L1180.3 864.6L1128.3 975.8Z" fill="#f1f1f1" stroke="#f1f1f1"></path><path d="M1259 993.8L1291 840.6L1180.3 864.6Z" fill="#f3f3f3" stroke="#f3f3f3"></path><path d="M1389.7 270.5L1350.7 187.4L1255 269.5Z" fill="#f3f3f3" stroke="#f3f3f3"></path><path d="M1369.7 116.2L1350.7 187.4L1477.3 181.4Z" fill="#f3f3f3" stroke="#f3f3f3"></path><path d="M543.3 628.1L622 716.3L607 550.1Z" fill="#f3f3f3" stroke="#f3f3f3"></path><path d="M543.3 628.1L562.3 705.3L622 716.3Z" fill="#f5f5f5" stroke="#f5f5f5"></path><path d="M622 716.3L562.3 705.3L650 770.5Z" fill="#efefef" stroke="#efefef"></path><path d="M650 770.5L636 880.6L758.7 857.6Z" fill="#fdfdfd" stroke="#fdfdfd"></path><path d="M1217.3 1080L1259 993.8L1128.3 975.8Z" fill="#fdfdfd" stroke="#fdfdfd"></path><path d="M491.3 505.9L543.3 628.1L607 550.1Z" fill="#f9f9f9" stroke="#f9f9f9"></path><path d="M1285 104.2L1188.3 88.2L1261 168.4Z" fill="#ebebeb" stroke="#ebebeb"></path><path d="M1261 168.4L1188.3 88.2L1185.3 194.4Z" fill="#f3f3f3" stroke="#f3f3f3"></path><path d="M941 58.2L873.3 190.4L935 215.4Z" fill="#fbfbfb" stroke="#fbfbfb"></path><path d="M734.7 229.4L606 263.5L738.7 334.5Z" fill="#efefef" stroke="#efefef"></path><path d="M941 58.2L935 215.4L1034.7 129.2Z" fill="#ebebeb" stroke="#ebebeb"></path><path d="M992 0L941 58.2L1034.7 129.2Z" fill="#f7f7f7" stroke="#f7f7f7"></path><path d="M488.3 747.5L636 880.6L650 770.5Z" fill="#f5f5f5" stroke="#f5f5f5"></path><path d="M758.7 857.6L732.7 985.8L891.3 945.8Z" fill="#fdfdfd" stroke="#fdfdfd"></path><path d="M858.3 91.2L730.7 142.2L873.3 190.4Z" fill="#fdfdfd" stroke="#fdfdfd"></path><path d="M1259 993.8L1350.7 959.8L1291 840.6Z" fill="#ebebeb" stroke="#ebebeb"></path><path d="M1475.3 875.6L1526.3 756.5L1420.7 823.5Z" fill="#f5f5f5" stroke="#f5f5f5"></path><path d="M1420.7 823.5L1526.3 756.5L1484.3 719.3Z" fill="#f9f9f9" stroke="#f9f9f9"></path><path d="M615 209.4L606 263.5L734.7 229.4Z" fill="#ffffff" stroke="#ffffff"></path><path d="M598 372.7L491.3 505.9L619 519.9Z" fill="#fdfdfd" stroke="#fdfdfd"></path><path d="M1350.7 187.4L1285 104.2L1261 168.4Z" fill="#f3f3f3" stroke="#f3f3f3"></path><path d="M678 947.8L732.7 985.8L758.7 857.6Z" fill="#f7f7f7" stroke="#f7f7f7"></path><path d="M961 997.8L1063.7 1080L1053.7 997.8Z" fill="#fdfdfd" stroke="#fdfdfd"></path><path d="M1053.7 997.8L1063.7 1080L1128.3 975.8Z" fill="#fbfbfb" stroke="#fbfbfb"></path><path d="M1259 993.8L1315 1080L1350.7 959.8Z" fill="#f3f3f3" stroke="#f3f3f3"></path><path d="M917 1080L1063.7 1080L961 997.8Z" fill="#f9f9f9" stroke="#f9f9f9"></path><path d="M636 880.6L678 947.8L758.7 857.6Z" fill="#f7f7f7" stroke="#f7f7f7"></path><path d="M1475.3 875.6L1420.7 823.5L1365.7 910.6Z" fill="#f7f7f7" stroke="#f7f7f7"></path><path d="M1484.3 719.3L1571 731.3L1498.3 593.1Z" fill="#f5f5f5" stroke="#f5f5f5"></path><path d="M889.3 1080L961 997.8L891.3 945.8Z" fill="#f9f9f9" stroke="#f9f9f9"></path><path d="M761.7 1080L889.3 1080L891.3 945.8Z" fill="#f5f5f5" stroke="#f5f5f5"></path><path d="M499.3 390.7L491.3 505.9L598 372.7Z" fill="#f3f3f3" stroke="#f3f3f3"></path><path d="M433.7 660.3L488.3 747.5L562.3 705.3Z" fill="#efefef" stroke="#efefef"></path><path d="M730.7 142.2L615 209.4L734.7 229.4Z" fill="#fbfbfb" stroke="#fbfbfb"></path><path d="M522.3 272.5L499.3 390.7L598 372.7Z" fill="#ebebeb" stroke="#ebebeb"></path><path d="M1461.3 966.8L1475.3 875.6L1365.7 910.6Z" fill="#f9f9f9" stroke="#f9f9f9"></path><path d="M1571 731.3L1583 549.1L1498.3 593.1Z" fill="#f3f3f3" stroke="#f3f3f3"></path><path d="M1513.3 529.9L1613 486.9L1470.3 373.7Z" fill="#f3f3f3" stroke="#f3f3f3"></path><path d="M1063.7 1080L1217.3 1080L1128.3 975.8Z" fill="#f3f3f3" stroke="#f3f3f3"></path><path d="M1350.7 959.8L1461.3 966.8L1365.7 910.6Z" fill="#f1f1f1" stroke="#f1f1f1"></path><path d="M1477.3 181.4L1350.7 187.4L1389.7 270.5Z" fill="#ededed" stroke="#ededed"></path><path d="M1350.7 187.4L1369.7 116.2L1285 104.2Z" fill="#ededed" stroke="#ededed"></path><path d="M1101.7 0L1034.7 129.2L1188.3 88.2Z" fill="#f9f9f9" stroke="#f9f9f9"></path><path d="M1477.3 181.4L1389.7 270.5L1459.3 330.5Z" fill="#ffffff" stroke="#ffffff"></path><path d="M522.3 272.5L598 372.7L606 263.5Z" fill="#fbfbfb" stroke="#fbfbfb"></path><path d="M1101.7 0L992 0L1034.7 129.2Z" fill="#ebebeb" stroke="#ebebeb"></path><path d="M941 58.2L874.3 0L858.3 91.2Z" fill="#fbfbfb" stroke="#fbfbfb"></path><path d="M858.3 91.2L743.7 0L730.7 142.2Z" fill="#ffffff" stroke="#ffffff"></path><path d="M1101.7 0L1188.3 88.2L1176.3 0Z" fill="#f3f3f3" stroke="#f3f3f3"></path><path d="M1176.3 0L1188.3 88.2L1311 0Z" fill="#efefef" stroke="#efefef"></path><path d="M1644 776.5L1571 731.3L1615 853.6Z" fill="#f3f3f3" stroke="#f3f3f3"></path><path d="M1526.3 756.5L1571 731.3L1484.3 719.3Z" fill="#f1f1f1" stroke="#f1f1f1"></path><path d="M562.3 705.3L488.3 747.5L650 770.5Z" fill="#f7f7f7" stroke="#f7f7f7"></path><path d="M636 880.6L531.3 987.8L678 947.8Z" fill="#f5f5f5" stroke="#f5f5f5"></path><path d="M433.7 660.3L562.3 705.3L543.3 628.1Z" fill="#fbfbfb" stroke="#fbfbfb"></path><path d="M1311 0L1188.3 88.2L1285 104.2Z" fill="#f9f9f9" stroke="#f9f9f9"></path><path d="M992 0L874.3 0L941 58.2Z" fill="#f1f1f1" stroke="#f1f1f1"></path><path d="M575.3 139.2L551.3 204.4L615 209.4Z" fill="#f1f1f1" stroke="#f1f1f1"></path><path d="M551.3 204.4L606 263.5L615 209.4Z" fill="#fdfdfd" stroke="#fdfdfd"></path><path d="M551.3 204.4L522.3 272.5L606 263.5Z" fill="#ebebeb" stroke="#ebebeb"></path><path d="M1570 262.5L1459.3 330.5L1470.3 373.7Z" fill="#f3f3f3" stroke="#f3f3f3"></path><path d="M1661.7 447.9L1613 486.9L1769.3 550.1Z" fill="#f1f1f1" stroke="#f1f1f1"></path><path d="M1583 549.1L1613 486.9L1513.3 529.9Z" fill="#efefef" stroke="#efefef"></path><path d="M645 1080L761.7 1080L732.7 985.8Z" fill="#ffffff" stroke="#ffffff"></path><path d="M732.7 985.8L761.7 1080L891.3 945.8Z" fill="#fbfbfb" stroke="#fbfbfb"></path><path d="M645 1080L732.7 985.8L678 947.8Z" fill="#efefef" stroke="#efefef"></path><path d="M1400.7 1080L1461.3 966.8L1350.7 959.8Z" fill="#ebebeb" stroke="#ebebeb"></path><path d="M1615 853.6L1571 731.3L1526.3 756.5Z" fill="#f9f9f9" stroke="#f9f9f9"></path><path d="M1217.3 1080L1315 1080L1259 993.8Z" fill="#f5f5f5" stroke="#f5f5f5"></path><path d="M575.3 139.2L615 209.4L626 86.2Z" fill="#f9f9f9" stroke="#f9f9f9"></path><path d="M396.7 626.1L433.7 660.3L491.3 505.9Z" fill="#f5f5f5" stroke="#f5f5f5"></path><path d="M491.3 505.9L433.7 660.3L543.3 628.1Z" fill="#f7f7f7" stroke="#f7f7f7"></path><path d="M396.7 626.1L491.3 505.9L392.7 464.9Z" fill="#efefef" stroke="#efefef"></path><path d="M1621 359.7L1570 262.5L1470.3 373.7Z" fill="#efefef" stroke="#efefef"></path><path d="M381.7 357.7L499.3 390.7L384.7 316.5Z" fill="#ebebeb" stroke="#ebebeb"></path><path d="M626 86.2L615 209.4L730.7 142.2Z" fill="#f7f7f7" stroke="#f7f7f7"></path><path d="M743.7 0L626 86.2L730.7 142.2Z" fill="#f1f1f1" stroke="#f1f1f1"></path><path d="M1613 486.9L1621 359.7L1470.3 373.7Z" fill="#f5f5f5" stroke="#f5f5f5"></path><path d="M1419.7 0L1311 0L1369.7 116.2Z" fill="#f9f9f9" stroke="#f9f9f9"></path><path d="M1369.7 116.2L1311 0L1285 104.2Z" fill="#f1f1f1" stroke="#f1f1f1"></path><path d="M1474.3 101.2L1369.7 116.2L1477.3 181.4Z" fill="#fbfbfb" stroke="#fbfbfb"></path><path d="M874.3 0L743.7 0L858.3 91.2Z" fill="#ebebeb" stroke="#ebebeb"></path><path d="M1603 64.2L1474.3 101.2L1477.3 181.4Z" fill="#fdfdfd" stroke="#fdfdfd"></path><path d="M392.7 464.9L491.3 505.9L499.3 390.7Z" fill="#f1f1f1" stroke="#f1f1f1"></path><path d="M410.7 849.6L489.3 898.6L488.3 747.5Z" fill="#f5f5f5" stroke="#f5f5f5"></path><path d="M1315 1080L1400.7 1080L1350.7 959.8Z" fill="#efefef" stroke="#efefef"></path><path d="M1769.3 550.1L1613 486.9L1583 549.1Z" fill="#efefef" stroke="#efefef"></path><path d="M1613 486.9L1661.7 447.9L1621 359.7Z" fill="#f5f5f5" stroke="#f5f5f5"></path><path d="M401.7 766.5L488.3 747.5L433.7 660.3Z" fill="#ededed" stroke="#ededed"></path><path d="M488.3 747.5L489.3 898.6L636 880.6Z" fill="#efefef" stroke="#efefef"></path><path d="M499.3 390.7L522.3 272.5L384.7 316.5Z" fill="#f1f1f1" stroke="#f1f1f1"></path><path d="M381.7 357.7L392.7 464.9L499.3 390.7Z" fill="#fbfbfb" stroke="#fbfbfb"></path><path d="M531.3 987.8L645 1080L678 947.8Z" fill="#ebebeb" stroke="#ebebeb"></path><path d="M1615 853.6L1475.3 875.6L1461.3 966.8Z" fill="#ededed" stroke="#ededed"></path><path d="M1615 853.6L1526.3 756.5L1475.3 875.6Z" fill="#ededed" stroke="#ededed"></path><path d="M1571 731.3L1702.7 679.3L1583 549.1Z" fill="#efefef" stroke="#efefef"></path><path d="M1664.7 952.8L1615 853.6L1461.3 966.8Z" fill="#f9f9f9" stroke="#f9f9f9"></path><path d="M489.3 898.6L531.3 987.8L636 880.6Z" fill="#f1f1f1" stroke="#f1f1f1"></path><path d="M396.7 626.1L401.7 766.5L433.7 660.3Z" fill="#efefef" stroke="#efefef"></path><path d="M489.3 898.6L448.7 976.8L531.3 987.8Z" fill="#fbfbfb" stroke="#fbfbfb"></path><path d="M384.7 316.5L522.3 272.5L403.7 214.4Z" fill="#ededed" stroke="#ededed"></path><path d="M392.7 464.9L341 599.1L396.7 626.1Z" fill="#ebebeb" stroke="#ebebeb"></path><path d="M396.7 626.1L287 667.3L401.7 766.5Z" fill="#f7f7f7" stroke="#f7f7f7"></path><path d="M1480.3 0L1419.7 0L1474.3 101.2Z" fill="#fdfdfd" stroke="#fdfdfd"></path><path d="M1474.3 101.2L1419.7 0L1369.7 116.2Z" fill="#f3f3f3" stroke="#f3f3f3"></path><path d="M1400.7 1080L1469.3 1080L1461.3 966.8Z" fill="#f1f1f1" stroke="#f1f1f1"></path><path d="M1748.7 802.5L1702.7 679.3L1644 776.5Z" fill="#fdfdfd" stroke="#fdfdfd"></path><path d="M1644 776.5L1702.7 679.3L1571 731.3Z" fill="#f5f5f5" stroke="#f5f5f5"></path><path d="M401.7 766.5L410.7 849.6L488.3 747.5Z" fill="#fbfbfb" stroke="#fbfbfb"></path><path d="M403.7 214.4L551.3 204.4L431.7 69.2Z" fill="#f1f1f1" stroke="#f1f1f1"></path><path d="M403.7 214.4L522.3 272.5L551.3 204.4Z" fill="#efefef" stroke="#efefef"></path><path d="M305 515.9L341 599.1L392.7 464.9Z" fill="#fdfdfd" stroke="#fdfdfd"></path><path d="M401.7 766.5L364 872.6L410.7 849.6Z" fill="#f3f3f3" stroke="#f3f3f3"></path><path d="M353 352.7L392.7 464.9L381.7 357.7Z" fill="#ebebeb" stroke="#ebebeb"></path><path d="M743.7 0L611 0L626 86.2Z" fill="#f9f9f9" stroke="#f9f9f9"></path><path d="M626 86.2L569.3 0L575.3 139.2Z" fill="#ffffff" stroke="#ffffff"></path><path d="M1727.7 258.5L1631 194.4L1570 262.5Z" fill="#f3f3f3" stroke="#f3f3f3"></path><path d="M1570 262.5L1631 194.4L1477.3 181.4Z" fill="#fdfdfd" stroke="#fdfdfd"></path><path d="M1727.7 258.5L1570 262.5L1621 359.7Z" fill="#f5f5f5" stroke="#f5f5f5"></path><path d="M1705.7 364.7L1621 359.7L1661.7 447.9Z" fill="#f1f1f1" stroke="#f1f1f1"></path><path d="M1771.3 376.7L1705.7 364.7L1661.7 447.9Z" fill="#fdfdfd" stroke="#fdfdfd"></path><path d="M292 333.5L353 352.7L384.7 316.5Z" fill="#f3f3f3" stroke="#f3f3f3"></path><path d="M384.7 316.5L353 352.7L381.7 357.7Z" fill="#fdfdfd" stroke="#fdfdfd"></path><path d="M431.7 69.2L551.3 204.4L575.3 139.2Z" fill="#efefef" stroke="#efefef"></path><path d="M1603 64.2L1480.3 0L1474.3 101.2Z" fill="#ffffff" stroke="#ffffff"></path><path d="M410.7 849.6L448.7 976.8L489.3 898.6Z" fill="#ffffff" stroke="#ffffff"></path><path d="M531.3 987.8L516.3 1080L645 1080Z" fill="#f3f3f3" stroke="#f3f3f3"></path><path d="M1817.3 678.3L1746.7 619.1L1702.7 679.3Z" fill="#ffffff" stroke="#ffffff"></path><path d="M1702.7 679.3L1746.7 619.1L1583 549.1Z" fill="#efefef" stroke="#efefef"></path><path d="M611 0L569.3 0L626 86.2Z" fill="#f9f9f9" stroke="#f9f9f9"></path><path d="M353 352.7L305 515.9L392.7 464.9Z" fill="#f3f3f3" stroke="#f3f3f3"></path><path d="M302 795.5L364 872.6L401.7 766.5Z" fill="#f9f9f9" stroke="#f9f9f9"></path><path d="M410.7 849.6L364 872.6L448.7 976.8Z" fill="#f3f3f3" stroke="#f3f3f3"></path><path d="M456.7 1080L516.3 1080L531.3 987.8Z" fill="#ffffff" stroke="#ffffff"></path><path d="M287 667.3L396.7 626.1L341 599.1Z" fill="#fdfdfd" stroke="#fdfdfd"></path><path d="M448.7 976.8L456.7 1080L531.3 987.8Z" fill="#ebebeb" stroke="#ebebeb"></path><path d="M1746.7 619.1L1769.3 550.1L1583 549.1Z" fill="#f7f7f7" stroke="#f7f7f7"></path><path d="M1630 1021.8L1664.7 952.8L1461.3 966.8Z" fill="#f7f7f7" stroke="#f7f7f7"></path><path d="M1731.7 877.6L1748.7 802.5L1644 776.5Z" fill="#f1f1f1" stroke="#f1f1f1"></path><path d="M1817.3 678.3L1818.3 529.9L1769.3 550.1Z" fill="#fbfbfb" stroke="#fbfbfb"></path><path d="M233.3 606.1L287 667.3L341 599.1Z" fill="#ebebeb" stroke="#ebebeb"></path><path d="M1724.7 65.2L1603 64.2L1631 194.4Z" fill="#ebebeb" stroke="#ebebeb"></path><path d="M1631 194.4L1603 64.2L1477.3 181.4Z" fill="#ebebeb" stroke="#ebebeb"></path><path d="M1727.7 258.5L1621 359.7L1705.7 364.7Z" fill="#ffffff" stroke="#ffffff"></path><path d="M1602 1080L1630 1021.8L1461.3 966.8Z" fill="#f5f5f5" stroke="#f5f5f5"></path><path d="M1777.3 314.5L1727.7 258.5L1705.7 364.7Z" fill="#f1f1f1" stroke="#f1f1f1"></path><path d="M1731.7 877.6L1615 853.6L1664.7 952.8Z" fill="#f7f7f7" stroke="#f7f7f7"></path><path d="M1731.7 877.6L1644 776.5L1615 853.6Z" fill="#ebebeb" stroke="#ebebeb"></path><path d="M1769.3 550.1L1771.3 376.7L1661.7 447.9Z" fill="#ffffff" stroke="#ffffff"></path><path d="M287 667.3L302 795.5L401.7 766.5Z" fill="#f7f7f7" stroke="#f7f7f7"></path><path d="M353 988.8L456.7 1080L448.7 976.8Z" fill="#fbfbfb" stroke="#fbfbfb"></path><path d="M325 62.2L330 239.4L403.7 214.4Z" fill="#f9f9f9" stroke="#f9f9f9"></path><path d="M403.7 214.4L330 239.4L384.7 316.5Z" fill="#fbfbfb" stroke="#fbfbfb"></path><path d="M353 352.7L292 333.5L305 515.9Z" fill="#f9f9f9" stroke="#f9f9f9"></path><path d="M305 515.9L233.3 606.1L341 599.1Z" fill="#ebebeb" stroke="#ebebeb"></path><path d="M1793.3 886.6L1731.7 877.6L1792.3 1001.8Z" fill="#fdfdfd" stroke="#fdfdfd"></path><path d="M330 239.4L292 333.5L384.7 316.5Z" fill="#f9f9f9" stroke="#f9f9f9"></path><path d="M569.3 0L431.7 69.2L575.3 139.2Z" fill="#efefef" stroke="#efefef"></path><path d="M1469.3 1080L1602 1080L1461.3 966.8Z" fill="#f1f1f1" stroke="#f1f1f1"></path><path d="M1630 1021.8L1675.7 1080L1664.7 952.8Z" fill="#f9f9f9" stroke="#f9f9f9"></path><path d="M353 988.8L448.7 976.8L364 872.6Z" fill="#ffffff" stroke="#ffffff"></path><path d="M1920 366.7L1777.3 314.5L1771.3 376.7Z" fill="#f1f1f1" stroke="#f1f1f1"></path><path d="M1771.3 376.7L1777.3 314.5L1705.7 364.7Z" fill="#f9f9f9" stroke="#f9f9f9"></path><path d="M1727.7 258.5L1738.7 174.4L1631 194.4Z" fill="#f5f5f5" stroke="#f5f5f5"></path><path d="M1817.3 678.3L1769.3 550.1L1746.7 619.1Z" fill="#ffffff" stroke="#ffffff"></path><path d="M1769.3 550.1L1818.3 529.9L1771.3 376.7Z" fill="#f5f5f5" stroke="#f5f5f5"></path><path d="M1817.3 678.3L1702.7 679.3L1748.7 802.5Z" fill="#fdfdfd" stroke="#fdfdfd"></path><path d="M569.3 0L464.7 0L431.7 69.2Z" fill="#f1f1f1" stroke="#f1f1f1"></path><path d="M431.7 69.2L325 62.2L403.7 214.4Z" fill="#fbfbfb" stroke="#fbfbfb"></path><path d="M1820.3 822.5L1817.3 678.3L1748.7 802.5Z" fill="#f9f9f9" stroke="#f9f9f9"></path><path d="M287 667.3L215.3 696.3L302 795.5Z" fill="#f3f3f3" stroke="#f3f3f3"></path><path d="M182.3 488.9L233.3 606.1L305 515.9Z" fill="#efefef" stroke="#efefef"></path><path d="M236.3 960.8L353 988.8L364 872.6Z" fill="#fbfbfb" stroke="#fbfbfb"></path><path d="M338 1080L353 988.8L232.3 1080Z" fill="#f9f9f9" stroke="#f9f9f9"></path><path d="M1808.3 171.4L1738.7 174.4L1727.7 258.5Z" fill="#ffffff" stroke="#ffffff"></path><path d="M1724.7 65.2L1637 0L1603 64.2Z" fill="#f1f1f1" stroke="#f1f1f1"></path><path d="M1603 64.2L1637 0L1480.3 0Z" fill="#f5f5f5" stroke="#f5f5f5"></path><path d="M233.3 606.1L215.3 696.3L287 667.3Z" fill="#ebebeb" stroke="#ebebeb"></path><path d="M1602 1080L1675.7 1080L1630 1021.8Z" fill="#fbfbfb" stroke="#fbfbfb"></path><path d="M1731.7 877.6L1793.3 886.6L1748.7 802.5Z" fill="#f9f9f9" stroke="#f9f9f9"></path><path d="M1792.3 1001.8L1731.7 877.6L1664.7 952.8Z" fill="#f7f7f7" stroke="#f7f7f7"></path><path d="M1793.3 886.6L1820.3 822.5L1748.7 802.5Z" fill="#ebebeb" stroke="#ebebeb"></path><path d="M1817.3 678.3L1920 566.1L1818.3 529.9Z" fill="#ffffff" stroke="#ffffff"></path><path d="M1773.3 71.2L1724.7 65.2L1738.7 174.4Z" fill="#f3f3f3" stroke="#f3f3f3"></path><path d="M1738.7 174.4L1724.7 65.2L1631 194.4Z" fill="#ebebeb" stroke="#ebebeb"></path><path d="M180.3 389.7L305 515.9L292 333.5Z" fill="#f3f3f3" stroke="#f3f3f3"></path><path d="M180.3 389.7L182.3 488.9L305 515.9Z" fill="#fdfdfd" stroke="#fdfdfd"></path><path d="M233.3 606.1L145.7 613.1L215.3 696.3Z" fill="#f7f7f7" stroke="#f7f7f7"></path><path d="M180.3 389.7L292 333.5L192.3 292.5Z" fill="#ffffff" stroke="#ffffff"></path><path d="M464.7 0L325 62.2L431.7 69.2Z" fill="#fdfdfd" stroke="#fdfdfd"></path><path d="M192.3 292.5L292 333.5L330 239.4Z" fill="#ededed" stroke="#ededed"></path><path d="M1777.3 314.5L1808.3 171.4L1727.7 258.5Z" fill="#f3f3f3" stroke="#f3f3f3"></path><path d="M1920 236.4L1808.3 171.4L1777.3 314.5Z" fill="#f1f1f1" stroke="#f1f1f1"></path><path d="M236.3 960.8L364 872.6L302 795.5Z" fill="#f1f1f1" stroke="#f1f1f1"></path><path d="M353 988.8L338 1080L456.7 1080Z" fill="#efefef" stroke="#efefef"></path><path d="M193.3 198.4L192.3 292.5L330 239.4Z" fill="#f5f5f5" stroke="#f5f5f5"></path><path d="M1675.7 1080L1792.3 1001.8L1664.7 952.8Z" fill="#ffffff" stroke="#ffffff"></path><path d="M1920 866.6L1920 747.5L1820.3 822.5Z" fill="#f3f3f3" stroke="#f3f3f3"></path><path d="M182.3 488.9L145.7 613.1L233.3 606.1Z" fill="#f1f1f1" stroke="#f1f1f1"></path><path d="M215.3 696.3L168.3 770.5L302 795.5Z" fill="#ededed" stroke="#ededed"></path><path d="M72.7 485.9L145.7 613.1L182.3 488.9Z" fill="#f5f5f5" stroke="#f5f5f5"></path><path d="M129.7 419.7L182.3 488.9L180.3 389.7Z" fill="#ebebeb" stroke="#ebebeb"></path><path d="M1808.3 171.4L1773.3 71.2L1738.7 174.4Z" fill="#f5f5f5" stroke="#f5f5f5"></path><path d="M1724.7 65.2L1746.7 0L1637 0Z" fill="#fdfdfd" stroke="#fdfdfd"></path><path d="M108.7 671.3L168.3 770.5L215.3 696.3Z" fill="#ededed" stroke="#ededed"></path><path d="M1920 654.3L1817.3 678.3L1920 747.5Z" fill="#f7f7f7" stroke="#f7f7f7"></path><path d="M1920 654.3L1920 566.1L1817.3 678.3Z" fill="#f5f5f5" stroke="#f5f5f5"></path><path d="M1818.3 529.9L1920 366.7L1771.3 376.7Z" fill="#efefef" stroke="#efefef"></path><path d="M1920 566.1L1920 508.9L1818.3 529.9Z" fill="#f3f3f3" stroke="#f3f3f3"></path><path d="M170.3 871.6L236.3 960.8L302 795.5Z" fill="#fdfdfd" stroke="#fdfdfd"></path><path d="M1920 747.5L1817.3 678.3L1820.3 822.5Z" fill="#f7f7f7" stroke="#f7f7f7"></path><path d="M1773.3 71.2L1746.7 0L1724.7 65.2Z" fill="#ffffff" stroke="#ffffff"></path><path d="M1920 866.6L1820.3 822.5L1793.3 886.6Z" fill="#ebebeb" stroke="#ebebeb"></path><path d="M1920 508.9L1920 366.7L1818.3 529.9Z" fill="#fdfdfd" stroke="#fdfdfd"></path><path d="M1920 66.2L1849.3 0L1773.3 71.2Z" fill="#ffffff" stroke="#ffffff"></path><path d="M1773.3 71.2L1849.3 0L1746.7 0Z" fill="#efefef" stroke="#efefef"></path><path d="M249.3 58.2L193.3 198.4L330 239.4Z" fill="#f1f1f1" stroke="#f1f1f1"></path><path d="M122.7 319.5L129.7 419.7L180.3 389.7Z" fill="#ededed" stroke="#ededed"></path><path d="M1675.7 1080L1778.3 1080L1792.3 1001.8Z" fill="#efefef" stroke="#efefef"></path><path d="M1920 1003.8L1920 866.6L1793.3 886.6Z" fill="#f9f9f9" stroke="#f9f9f9"></path><path d="M122.7 319.5L180.3 389.7L192.3 292.5Z" fill="#fdfdfd" stroke="#fdfdfd"></path><path d="M168.3 770.5L170.3 871.6L302 795.5Z" fill="#fdfdfd" stroke="#fdfdfd"></path><path d="M138.7 864.6L170.3 871.6L168.3 770.5Z" fill="#f1f1f1" stroke="#f1f1f1"></path><path d="M1920 366.7L1920 321.5L1777.3 314.5Z" fill="#efefef" stroke="#efefef"></path><path d="M325 62.2L249.3 58.2L330 239.4Z" fill="#fdfdfd" stroke="#fdfdfd"></path><path d="M281 0L249.3 58.2L325 62.2Z" fill="#f3f3f3" stroke="#f3f3f3"></path><path d="M0 615.1L108.7 671.3L145.7 613.1Z" fill="#f5f5f5" stroke="#f5f5f5"></path><path d="M145.7 613.1L108.7 671.3L215.3 696.3Z" fill="#f7f7f7" stroke="#f7f7f7"></path><path d="M464.7 0L281 0L325 62.2Z" fill="#f1f1f1" stroke="#f1f1f1"></path><path d="M149.7 227.4L122.7 319.5L192.3 292.5Z" fill="#fbfbfb" stroke="#fbfbfb"></path><path d="M129.7 419.7L72.7 485.9L182.3 488.9Z" fill="#f9f9f9" stroke="#f9f9f9"></path><path d="M149.7 227.4L192.3 292.5L193.3 198.4Z" fill="#fdfdfd" stroke="#fdfdfd"></path><path d="M1920 1003.8L1793.3 886.6L1792.3 1001.8Z" fill="#efefef" stroke="#efefef"></path><path d="M140.7 93.2L193.3 198.4L249.3 58.2Z" fill="#fbfbfb" stroke="#fbfbfb"></path><path d="M140.7 93.2L149.7 227.4L193.3 198.4Z" fill="#ffffff" stroke="#ffffff"></path><path d="M83.7 749.5L138.7 864.6L168.3 770.5Z" fill="#efefef" stroke="#efefef"></path><path d="M170.3 871.6L123.7 951.8L236.3 960.8Z" fill="#efefef" stroke="#efefef"></path><path d="M236.3 960.8L232.3 1080L353 988.8Z" fill="#f5f5f5" stroke="#f5f5f5"></path><path d="M1920 321.5L1920 236.4L1777.3 314.5Z" fill="#f3f3f3" stroke="#f3f3f3"></path><path d="M123.7 951.8L232.3 1080L236.3 960.8Z" fill="#f3f3f3" stroke="#f3f3f3"></path><path d="M0 532.9L72.7 485.9L0 371.7Z" fill="#ffffff" stroke="#ffffff"></path><path d="M0 371.7L72.7 485.9L129.7 419.7Z" fill="#fdfdfd" stroke="#fdfdfd"></path><path d="M108.7 671.3L83.7 749.5L168.3 770.5Z" fill="#efefef" stroke="#efefef"></path><path d="M0 708.3L83.7 749.5L108.7 671.3Z" fill="#ffffff" stroke="#ffffff"></path><path d="M138.7 864.6L123.7 951.8L170.3 871.6Z" fill="#f9f9f9" stroke="#f9f9f9"></path><path d="M0 872.6L123.7 951.8L138.7 864.6Z" fill="#ffffff" stroke="#ffffff"></path><path d="M1920 66.2L1773.3 71.2L1808.3 171.4Z" fill="#f3f3f3" stroke="#f3f3f3"></path><path d="M1920 1080L1920 1003.8L1792.3 1001.8Z" fill="#ffffff" stroke="#ffffff"></path><path d="M169.3 0L140.7 93.2L249.3 58.2Z" fill="#f9f9f9" stroke="#f9f9f9"></path><path d="M0 268.5L0 371.7L122.7 319.5Z" fill="#f3f3f3" stroke="#f3f3f3"></path><path d="M1920 236.4L1920 66.2L1808.3 171.4Z" fill="#f3f3f3" stroke="#f3f3f3"></path><path d="M281 0L169.3 0L249.3 58.2Z" fill="#f1f1f1" stroke="#f1f1f1"></path><path d="M1778.3 1080L1920 1080L1792.3 1001.8Z" fill="#fbfbfb" stroke="#fbfbfb"></path><path d="M0 371.7L129.7 419.7L122.7 319.5Z" fill="#efefef" stroke="#efefef"></path><path d="M72.7 485.9L0 532.9L145.7 613.1Z" fill="#ebebeb" stroke="#ebebeb"></path><path d="M83.7 749.5L0 872.6L138.7 864.6Z" fill="#f5f5f5" stroke="#f5f5f5"></path><path d="M122.7 319.5L149.7 227.4L0 268.5Z" fill="#f9f9f9" stroke="#f9f9f9"></path><path d="M0 532.9L0 615.1L145.7 613.1Z" fill="#f9f9f9" stroke="#f9f9f9"></path><path d="M0 615.1L0 708.3L108.7 671.3Z" fill="#f7f7f7" stroke="#f7f7f7"></path><path d="M0 268.5L149.7 227.4L0 183.4Z" fill="#ebebeb" stroke="#ebebeb"></path><path d="M0 708.3L0 743.5L83.7 749.5Z" fill="#f7f7f7" stroke="#f7f7f7"></path><path d="M1920 66.2L1920 0L1849.3 0Z" fill="#fbfbfb" stroke="#fbfbfb"></path><path d="M0 183.4L149.7 227.4L140.7 93.2Z" fill="#fdfdfd" stroke="#fdfdfd"></path><path d="M0 743.5L0 872.6L83.7 749.5Z" fill="#fbfbfb" stroke="#fbfbfb"></path><path d="M123.7 951.8L66.7 1080L232.3 1080Z" fill="#ffffff" stroke="#ffffff"></path><path d="M0 108.2L0 183.4L140.7 93.2Z" fill="#f1f1f1" stroke="#f1f1f1"></path><path d="M0 978.8L66.7 1080L123.7 951.8Z" fill="#fdfdfd" stroke="#fdfdfd"></path><path d="M169.3 0L84.7 0L140.7 93.2Z" fill="#fdfdfd" stroke="#fdfdfd"></path><path d="M0 872.6L0 978.8L123.7 951.8Z" fill="#f1f1f1" stroke="#f1f1f1"></path><path d="M84.7 0L0 108.2L140.7 93.2Z" fill="#ededed" stroke="#ededed"></path><path d="M0 978.8L0 1080L66.7 1080Z" fill="#fbfbfb" stroke="#fbfbfb"></path><path d="M84.7 0L0 0L0 108.2Z" fill="#fdfdfd" stroke="#fdfdfd"></path></g></svg>