<svg id="visual" viewBox="0 0 400 1920" width="400" height="1920" xmlns="http://www.w3.org/2000/svg" xmlns:xlink="http://www.w3.org/1999/xlink" version="1.1"><path d="M285 0L275.7 29.2C266.3 58.3 247.7 116.7 241 174.8C234.3 233 239.7 291 246.2 349.2C252.7 407.3 260.3 465.7 258.7 523.8C257 582 246 640 254.8 698.2C263.7 756.3 292.3 814.7 306 872.8C319.7 931 318.3 989 320.3 1047.2C322.3 1105.3 327.7 1163.7 314.2 1221.8C300.7 1280 268.3 1338 271.8 1396.2C275.3 1454.3 314.7 1512.7 321.7 1570.8C328.7 1629 303.3 1687 303 1745.2C302.7 1803.3 327.3 1861.7 339.7 1890.8L352 1920L0 1920L0 1890.8C0 1861.7 0 1803.3 0 1745.2C0 1687 0 1629 0 1570.8C0 1512.7 0 1454.3 0 1396.2C0 1338 0 1280 0 1221.8C0 1163.7 0 1105.3 0 1047.2C0 989 0 931 0 872.8C0 814.7 0 756.3 0 698.2C0 640 0 582 0 523.8C0 465.7 0 407.3 0 349.2C0 291 0 233 0 174.8C0 116.7 0 58.3 0 29.2L0 0Z" fill="#98d7b7"></path><path d="M160 0L162.5 29.2C165 58.3 170 116.7 185.8 174.8C201.7 233 228.3 291 238.5 349.2C248.7 407.3 242.3 465.7 243.3 523.8C244.3 582 252.7 640 250 698.2C247.3 756.3 233.7 814.7 231.7 872.8C229.7 931 239.3 989 231.5 1047.2C223.7 1105.3 198.3 1163.7 206.3 1221.8C214.3 1280 255.7 1338 268 1396.2C280.3 1454.3 263.7 1512.7 251.3 1570.8C239 1629 231 1687 237.8 1745.2C244.7 1803.3 266.3 1861.7 277.2 1890.8L288 1920L0 1920L0 1890.8C0 1861.7 0 1803.3 0 1745.2C0 1687 0 1629 0 1570.8C0 1512.7 0 1454.3 0 1396.2C0 1338 0 1280 0 1221.8C0 1163.7 0 1105.3 0 1047.2C0 989 0 931 0 872.8C0 814.7 0 756.3 0 698.2C0 640 0 582 0 523.8C0 465.7 0 407.3 0 349.2C0 291 0 233 0 174.8C0 116.7 0 58.3 0 29.2L0 0Z" fill="#4a94a7"></path><path d="M198 0L201.8 29.2C205.7 58.3 213.3 116.7 221.3 174.8C229.3 233 237.7 291 233 349.2C228.3 407.3 210.7 465.7 194.5 523.8C178.3 582 163.7 640 170.5 698.2C177.3 756.3 205.7 814.7 203.7 872.8C201.7 931 169.3 989 169.5 1047.2C169.7 1105.3 202.3 1163.7 200.3 1221.8C198.3 1280 161.7 1338 155.2 1396.2C148.7 1454.3 172.3 1512.7 176.2 1570.8C180 1629 164 1687 164.3 1745.2C164.7 1803.3 181.3 1861.7 189.7 1890.8L198 1920L0 1920L0 1890.8C0 1861.7 0 1803.3 0 1745.2C0 1687 0 1629 0 1570.8C0 1512.7 0 1454.3 0 1396.2C0 1338 0 1280 0 1221.8C0 1163.7 0 1105.3 0 1047.2C0 989 0 931 0 872.8C0 814.7 0 756.3 0 698.2C0 640 0 582 0 523.8C0 465.7 0 407.3 0 349.2C0 291 0 233 0 174.8C0 116.7 0 58.3 0 29.2L0 0Z" fill="#484d6d"></path><path d="M165 0L169.3 29.2C173.7 58.3 182.3 116.7 185.5 174.8C188.7 233 186.3 291 187.7 349.2C189 407.3 194 465.7 194.8 523.8C195.7 582 192.3 640 181 698.2C169.7 756.3 150.3 814.7 141.3 872.8C132.3 931 133.7 989 134.8 1047.2C136 1105.3 137 1163.7 130.3 1221.8C123.7 1280 109.3 1338 105 1396.2C100.7 1454.3 106.3 1512.7 118.8 1570.8C131.3 1629 150.7 1687 162 1745.2C173.3 1803.3 176.7 1861.7 178.3 1890.8L180 1920L0 1920L0 1890.8C0 1861.7 0 1803.3 0 1745.2C0 1687 0 1629 0 1570.8C0 1512.7 0 1454.3 0 1396.2C0 1338 0 1280 0 1221.8C0 1163.7 0 1105.3 0 1047.2C0 989 0 931 0 872.8C0 814.7 0 756.3 0 698.2C0 640 0 582 0 523.8C0 465.7 0 407.3 0 349.2C0 291 0 233 0 174.8C0 116.7 0 58.3 0 29.2L0 0Z" fill="#484d6d"></path><path d="M112 0L111.5 29.2C111 58.3 110 116.7 102.3 174.8C94.7 233 80.3 291 73.2 349.2C66 407.3 66 465.7 74.8 523.8C83.7 582 101.3 640 109.8 698.2C118.3 756.3 117.7 814.7 117 872.8C116.3 931 115.7 989 114.2 1047.2C112.7 1105.3 110.3 1163.7 112.5 1221.8C114.7 1280 121.3 1338 118 1396.2C114.7 1454.3 101.3 1512.7 97.8 1570.8C94.3 1629 100.7 1687 110.8 1745.2C121 1803.3 135 1861.7 142 1890.8L149 1920L0 1920L0 1890.8C0 1861.7 0 1803.3 0 1745.2C0 1687 0 1629 0 1570.8C0 1512.7 0 1454.3 0 1396.2C0 1338 0 1280 0 1221.8C0 1163.7 0 1105.3 0 1047.2C0 989 0 931 0 872.8C0 814.7 0 756.3 0 698.2C0 640 0 582 0 523.8C0 465.7 0 407.3 0 349.2C0 291 0 233 0 174.8C0 116.7 0 58.3 0 29.2L0 0Z" fill="#4a94a7"></path><path d="M30 0L36.7 29.2C43.3 58.3 56.7 116.7 57 174.8C57.3 233 44.7 291 46 349.2C47.3 407.3 62.7 465.7 70.3 523.8C78 582 78 640 77.3 698.2C76.7 756.3 75.3 814.7 74.5 872.8C73.7 931 73.3 989 66.7 1047.2C60 1105.3 47 1163.7 46.7 1221.8C46.3 1280 58.7 1338 69.2 1396.2C79.7 1454.3 88.3 1512.7 91.8 1570.8C95.3 1629 93.7 1687 90.2 1745.2C86.7 1803.3 81.3 1861.7 78.7 1890.8L76 1920L0 1920L0 1890.8C0 1861.7 0 1803.3 0 1745.2C0 1687 0 1629 0 1570.8C0 1512.7 0 1454.3 0 1396.2C0 1338 0 1280 0 1221.8C0 1163.7 0 1105.3 0 1047.2C0 989 0 931 0 872.8C0 814.7 0 756.3 0 698.2C0 640 0 582 0 523.8C0 465.7 0 407.3 0 349.2C0 291 0 233 0 174.8C0 116.7 0 58.3 0 29.2L0 0Z" fill="#98d7b7"></path></svg>